<?xml version="1.0" encoding="utf-8"?>
<!-- Generator: Adobe Illustrator 25.0.0, SVG Export Plug-In . SVG Version: 6.00 Build 0)  -->
<svg version="1.1" id="T" xmlns="http://www.w3.org/2000/svg" xmlns:xlink="http://www.w3.org/1999/xlink" x="0px" y="0px"
	 viewBox="0 0 3000 3000" style="enable-background:new 0 0 3000 3000;" xml:space="preserve">
<style type="text/css">
	.st0{fill:#351612;}
	.st1{fill:url(#SVGID_1_);}
</style>
<path class="st0" d="M291.2,2853.1h2417.6c79.69,0,144.3-64.6,144.3-144.3V290.87c0-79.51-64.45-143.96-143.96-143.96H291.2
	c-79.69,0-144.3,64.6-144.3,144.3v2417.6C146.9,2788.49,211.51,2853.1,291.2,2853.1z"/>
<linearGradient id="SVGID_1_" gradientUnits="userSpaceOnUse" x1="-278.7408" y1="1506.799" x2="2818.4441" y2="1493.0793">
	<stop  offset="0.4064" style="stop-color:#DA3434"/>
	<stop  offset="0.5912" style="stop-color:#DE5933"/>
	<stop  offset="0.7705" style="stop-color:#E27131"/>
	<stop  offset="0.8714" style="stop-color:#E37930"/>
</linearGradient>
<path class="st1" d="M592.6,925.66h0.29c-0.02,0-0.05,0-0.07,0C592.74,925.66,592.67,925.66,592.6,925.66z M2302.17,598.05H1027.25
	H842.76h-4.44c0.74,0,1.48,0.03,2.22,0.05c-52.53,1-94.75,37.25-94.75,81.86l0,0c0,44.6,42.22,80.86,94.75,81.86
	c-0.74,0.01-1.48,0.05-2.22,0.05h4.44h77.66c53.56,0,96.97,36.67,96.97,81.9c0,45.23-43.42,81.9-96.97,81.9H818.46h-5.8
	c0.38,0.03,0.76,0.08,1.14,0.11c-45.87,2.05-82.32,34.11-82.32,73.36v0c0,37.98,34.13,69.23,77.89,73.07
	c-1.48,0.06-2.96,0.1-4.46,0.1h4.81c0.66,0,1.32,0.03,1.98,0.07c2.23,0.15,4.48,0.24,6.75,0.24h109.91c2.27,0,4.52-0.09,6.75-0.24
	c0.66-0.04,1.32-0.07,1.98-0.07h370.41c53.56,0,96.97,36.67,96.97,81.9v1.91c0,45.23-43.42,81.9-96.97,81.9H1178.1h-5.04
	c0.85,0,1.68,0.04,2.52,0.05c-52.75,1.13-95.1,37.58-95.1,82.4v0.81c0,44.82,42.35,81.27,95.1,82.4c-0.84,0.02-1.68,0.05-2.52,0.05
	h5.04h146.66h66.15c53.56,0,96.97,36.67,96.97,81.9v1.91c0,45.23-43.42,81.9-96.97,81.9h-143.48h-146.66h-3.74
	c0.63,0,1.25,0.03,1.87,0.04c-53.05,0.85-95.75,37.41-95.75,82.41v0.81c0,45.01,42.7,81.57,95.75,82.41
	c-0.62,0.01-1.24,0.04-1.87,0.04h3.74h105.44c53.56,0,96.97,36.67,96.97,81.9v1.91c0,45.2-43.36,81.85-96.86,81.9
	c-1.65-0.07-3.31-0.11-4.98-0.11h-146.66c-53.92,0-97.62,36.92-97.62,82.45v0.81c0,45.54,43.71,82.45,97.62,82.45h6.67
	c-1.66,0.07-3.34,0.11-5.03,0.11h251.18c53.56,0,96.97,36.67,96.97,81.9v1.91c0,45.23-43.42,81.9-96.97,81.9h-147.68h-1.11
	c0.19,0,0.37,0.01,0.56,0.01c-53.66,0.25-97.07,37.06-97.07,82.44v2.66c0,45.32,43.3,82.09,96.86,82.44c-0.24,0-0.49,0.02-0.73,0.02
	h1.5h38.11l475.44,2.1c70.15,0,105.23-30.89,105.23-84.24V1165.28c0-56.16,38.59-84.24,105.23-84.24h418.34
	c70.15,0,105.23-30.89,105.23-84.24V682.29C2407.4,626.13,2372.33,598.05,2302.17,598.05z M1035,1339.26v-36.49
	c0-35.68-28.93-64.61-64.61-64.61H805.07c-35.68,0-64.61,28.93-64.61,64.61v36.49c0,35.68,28.93,64.61,64.61,64.61h165.31
	C1006.07,1403.87,1035,1374.94,1035,1339.26z M1003.15,2337.14v-36.09c0-35.79-29.02-64.81-64.81-64.81H761.63
	c-35.79,0-64.81,29.02-64.81,64.81v36.09c0,35.79,29.02,64.81,64.81,64.81h176.71C974.13,2401.95,1003.15,2372.94,1003.15,2337.14z"
	/>
</svg>
